<svg width="12" height="12" viewBox="0 0 12 12" fill="none" xmlns="http://www.w3.org/2000/svg">
<path d="M11.0285 5.6624L9.23387 7.45702C8.92587 7.76505 8.56022 8.00939 8.15778 8.17609C7.75535 8.3428 7.32402 8.4286 6.88842 8.4286C6.45283 8.4286 6.0215 8.3428 5.61907 8.17609C5.21663 8.00939 4.85098 7.76505 4.54298 7.45702C4.46705 7.39381 4.40513 7.31547 4.36117 7.227C4.31721 7.13852 4.29218 7.04185 4.28768 6.94316C4.28317 6.84447 4.29929 6.74592 4.33501 6.65381C4.37073 6.5617 4.42525 6.47804 4.49511 6.40819C4.56497 6.33833 4.64862 6.2838 4.74074 6.24809C4.83285 6.21237 4.9314 6.19625 5.03009 6.20075C5.12878 6.20526 5.22545 6.23029 5.31392 6.27425C5.4024 6.31821 5.48074 6.38013 5.54394 6.45606C5.90101 6.80943 6.38309 7.00765 6.88546 7.00765C7.38783 7.00765 7.86991 6.80943 8.22699 6.45606L10.0216 4.66144C10.3774 4.30565 10.5773 3.82309 10.5773 3.31992C10.5773 2.81675 10.3774 2.33419 10.0216 1.9784C9.66581 1.6226 9.18325 1.42272 8.68008 1.42272C8.17691 1.42272 7.69435 1.6226 7.33856 1.9784L6.76997 2.55291C6.63645 2.68643 6.45535 2.76144 6.26653 2.76144C6.0777 2.76144 5.89661 2.68643 5.76309 2.55291C5.62957 2.41939 5.55455 2.2383 5.55455 2.04947C5.55455 1.86064 5.62957 1.67955 5.76309 1.54603L6.3376 0.971514C6.95965 0.349464 7.80333 0 8.68304 0C9.56276 0 10.4064 0.349464 11.0285 0.971514C11.6505 1.59356 12 2.43724 12 3.31696C12 4.19667 11.6505 5.04035 11.0285 5.6624ZM5.23003 9.44709L4.66144 10.0216C4.30565 10.3774 3.82309 10.5773 3.31992 10.5773C2.81675 10.5773 2.33419 10.3774 1.9784 10.0216C1.6226 9.66581 1.42272 9.18325 1.42272 8.68008C1.42272 8.17691 1.6226 7.69435 1.9784 7.33856L3.77301 5.54394C4.13009 5.19057 4.61217 4.99235 5.11454 4.99235C5.61691 4.99235 6.09899 5.19057 6.45606 5.54394C6.59232 5.65736 6.76605 5.71576 6.94316 5.70768C7.12027 5.6996 7.28796 5.62561 7.41332 5.50025C7.53869 5.37489 7.61267 5.20719 7.62076 5.03009C7.62884 4.85298 7.57044 4.67925 7.45702 4.54298C7.14942 4.23425 6.78389 3.98928 6.3814 3.82213C5.97892 3.65498 5.54739 3.56894 5.11157 3.56894C4.67576 3.56894 4.24423 3.65498 3.84175 3.82213C3.43926 3.98928 3.07373 4.23425 2.76613 4.54298L0.971514 6.3376C0.349464 6.95965 0 7.80333 0 8.68304C0 9.56276 0.349464 10.4064 0.971514 11.0285C1.59356 11.6505 2.43724 12 3.31696 12C4.19667 12 5.04035 11.6505 5.6624 11.0285L6.23691 10.454C6.37043 10.3204 6.44545 10.1394 6.44545 9.95053C6.44545 9.7617 6.37043 9.58061 6.23691 9.44709C6.10339 9.31357 5.9223 9.23856 5.73347 9.23856C5.54465 9.23856 5.36355 9.31357 5.23003 9.44709Z" fill="#4B7FD6"/>
</svg>
