<svg width="18" height="24" viewBox="0 0 18 24" fill="none" xmlns="http://www.w3.org/2000/svg">
<path d="M16.8162 2.61424H11.8315C11.6323 1.99817 11.2522 1.46271 10.7448 1.08338C10.2374 0.704053 9.62829 0.5 9.00346 0.5C8.37863 0.5 7.76956 0.704053 7.26216 1.08338C6.75476 1.46271 6.37463 1.99817 6.17538 2.61424H1.38462C1.21507 2.58873 1.04226 2.60091 0.87757 2.64999C0.712885 2.69906 0.560077 2.78391 0.429228 2.89893C0.29838 3.01395 0.192467 3.15653 0.118479 3.31726C0.0444905 3.47799 0.00410924 3.65322 0 3.83137V22.2828C0.000906482 22.4436 0.0322471 22.6026 0.092232 22.7508C0.152217 22.899 0.239671 23.0335 0.349602 23.1465C0.459533 23.2595 0.589787 23.3489 0.732927 23.4095C0.876067 23.4702 1.02929 23.5009 1.18385 23.5H16.8162C16.9707 23.5009 17.1239 23.4702 17.2671 23.4095C17.4102 23.3489 17.5405 23.2595 17.6504 23.1465C17.7603 23.0335 17.8478 22.899 17.9078 22.7508C17.9678 22.6026 17.9991 22.4436 18 22.2828V3.83137C17.9991 3.67059 17.9678 3.51157 17.9078 3.36339C17.8478 3.2152 17.7603 3.08076 17.6504 2.96774C17.5405 2.85472 17.4102 2.76533 17.2671 2.70467C17.1239 2.64402 16.9707 2.61329 16.8162 2.61424ZM4.35462 4.77483C4.35462 4.58382 4.42756 4.40064 4.55739 4.26558C4.68722 4.13051 4.86331 4.05464 5.04692 4.05464H7.42846V3.60091C7.42846 3.15873 7.59732 2.73465 7.89788 2.42198C8.19844 2.10931 8.60609 1.93365 9.03115 1.93365C9.45621 1.93365 9.86386 2.10931 10.1644 2.42198C10.465 2.73465 10.6338 3.15873 10.6338 3.60091V4.09065H13.0154C13.199 4.09065 13.3751 4.16652 13.5049 4.30159C13.6348 4.43665 13.7077 4.61983 13.7077 4.81084V6.1072H4.32692L4.35462 4.77483ZM14.4069 11.4223L8.09308 17.9905L4.46538 14.2166C4.28177 14.0256 4.17862 13.7666 4.17862 13.4964C4.17862 13.2263 4.28177 12.9672 4.46538 12.7762C4.649 12.5852 4.89803 12.4779 5.15769 12.4779C5.41736 12.4779 5.66639 12.5852 5.85 12.7762L8.10692 15.1241L13.05 9.98186C13.2336 9.79086 13.4826 9.68355 13.7423 9.68355C14.002 9.68355 14.251 9.79086 14.4346 9.98186C14.6182 10.1729 14.7214 10.4319 14.7214 10.7021C14.7214 10.9722 14.6182 11.2313 14.4346 11.4223H14.4069Z" fill="#FEFEFE"/>
</svg>
